<svg width="19" height="18" viewBox="0 0 19 18" fill="none" xmlns="http://www.w3.org/2000/svg">
<path d="M9.22765 0C7.03653 9.08602e-05 4.91693 0.77984 3.24812 2.19973C1.5793 3.61961 0.470174 5.58698 0.119185 7.74981C-0.231805 9.91264 0.198251 12.1298 1.3324 14.0045C2.46655 15.8793 4.23079 17.2893 6.30943 17.9823C6.77082 18.0631 6.94383 17.7863 6.94383 17.544C6.94383 17.3249 6.93229 16.5982 6.93229 15.8254C4.61384 16.2522 4.01404 15.2602 3.82949 14.7412C3.62471 14.2363 3.30008 13.789 2.88366 13.4377C2.56069 13.2647 2.09931 12.8379 2.87212 12.8264C3.1672 12.8584 3.45022 12.9611 3.6972 13.1258C3.94417 13.2904 4.14781 13.5122 4.29087 13.7722C4.41708 13.999 4.58678 14.1985 4.79026 14.3596C4.99374 14.5206 5.22699 14.6399 5.47665 14.7106C5.72631 14.7813 5.98747 14.8021 6.24517 14.7717C6.50287 14.7413 6.75204 14.6604 6.9784 14.5335C7.01835 14.0644 7.22742 13.6258 7.56668 13.2993C5.51353 13.0687 3.36811 12.2727 3.36811 8.74321C3.35514 7.82611 3.69355 6.93882 4.31394 6.26328C4.03184 5.46622 4.06484 4.5915 4.40622 3.81796C4.40622 3.81796 5.179 3.57572 6.94382 4.76379C8.45372 4.34852 10.0477 4.34852 11.5576 4.76379C13.3224 3.5642 14.0952 3.81796 14.0952 3.81796C14.4366 4.59149 14.4697 5.46622 14.1875 6.26328C14.8098 6.93766 15.1485 7.82573 15.1333 8.74321C15.1333 12.2843 12.9764 13.0687 10.9232 13.2993C11.1434 13.5226 11.3131 13.7905 11.4205 14.0851C11.528 14.3796 11.5708 14.6939 11.5461 15.0065C11.5461 16.2407 11.5346 17.2326 11.5346 17.5441C11.5346 17.7863 11.7076 18.0746 12.169 17.9824C14.2439 17.2837 16.0031 15.8704 17.1324 13.9947C18.2617 12.1189 18.6877 9.90293 18.3343 7.7422C17.9809 5.58147 16.8711 3.61665 15.203 2.19849C13.5349 0.780335 11.4171 0.00113953 9.22765 0Z" fill="white"/>
</svg>
