<svg width="90" height="21" viewBox="0 0 90 21" fill="none" xmlns="http://www.w3.org/2000/svg">
<path d="M0.896 16V4.64H2.576V10.112L1.824 9.504H7.776L7.024 10.112V4.64H8.704V16H7.024V10.464L7.776 11.072H1.824L2.576 10.464V16H0.896ZM13.5618 16V6.224H10.2338V4.64H18.5538V6.224H15.2258V16H13.5618ZM23.3475 14.624L21.3955 6.496L21.5715 6.48V16H19.9555V4.64H22.1955L24.3075 13.264H23.6675L25.7795 4.64H28.0195V16H26.4035V6.48L26.5795 6.496L24.6275 14.624H23.3475ZM30.3493 16V4.64H32.0293V15.36L31.0053 14.416H37.4533V16H30.3493Z" fill="white"/>
<g filter="url(#filter0_i_5_6)">
<rect x="47" y="3" width="43" height="15" rx="6" fill="#1E3E62"/>
<rect x="47.5" y="3.5" width="42" height="14" rx="5.5" stroke="white"/>
<path d="M55.94 13.12C55.4333 13.12 54.99 13.0067 54.61 12.78C54.23 12.5533 53.9367 12.23 53.73 11.81C53.5233 11.39 53.42 10.9 53.42 10.34C53.42 9.78 53.5233 9.29333 53.73 8.88C53.9367 8.46 54.23 8.13667 54.61 7.91C54.99 7.67667 55.4333 7.56 55.94 7.56C56.3733 7.56 56.7567 7.63667 57.09 7.79C57.43 7.93667 57.7033 8.15333 57.91 8.44C58.1233 8.72667 58.26 9.07667 58.32 9.49L57.21 9.55C57.1567 9.20333 57.0167 8.94 56.79 8.76C56.5633 8.57333 56.28 8.48 55.94 8.48C55.4933 8.48 55.1433 8.64667 54.89 8.98C54.6433 9.30667 54.52 9.76 54.52 10.34C54.52 10.92 54.6433 11.3767 54.89 11.71C55.1433 12.0367 55.4933 12.2 55.94 12.2C56.28 12.2 56.5633 12.1067 56.79 11.92C57.0167 11.7267 57.1567 11.4367 57.21 11.05L58.32 11.11C58.26 11.5167 58.1233 11.87 57.91 12.17C57.7033 12.47 57.43 12.7033 57.09 12.87C56.7567 13.0367 56.3733 13.12 55.94 13.12ZM60.8845 13.12C60.3312 13.12 59.8879 12.9933 59.5545 12.74C59.2279 12.4867 59.0645 12.13 59.0645 11.67C59.0645 11.21 59.2012 10.8533 59.4745 10.6C59.7545 10.34 60.1845 10.1533 60.7645 10.04L62.5945 9.69C62.5945 9.27667 62.4979 8.97 62.3045 8.77C62.1112 8.56333 61.8245 8.46 61.4445 8.46C61.1045 8.46 60.8379 8.53667 60.6445 8.69C60.4512 8.83667 60.3179 9.05667 60.2445 9.35L59.1545 9.28C59.2545 8.74667 59.5012 8.32667 59.8945 8.02C60.2945 7.71333 60.8112 7.56 61.4445 7.56C62.1645 7.56 62.7112 7.75333 63.0845 8.14C63.4645 8.52 63.6545 9.05667 63.6545 9.75V11.82C63.6545 11.9467 63.6745 12.0367 63.7145 12.09C63.7612 12.1367 63.8345 12.16 63.9345 12.16H64.1245V13C64.0912 13.0067 64.0379 13.0133 63.9645 13.02C63.8912 13.0267 63.8145 13.03 63.7345 13.03C63.5079 13.03 63.3112 12.9933 63.1445 12.92C62.9845 12.8467 62.8645 12.7267 62.7845 12.56C62.7045 12.3867 62.6645 12.1567 62.6645 11.87L62.7745 11.92C62.7212 12.1533 62.6045 12.36 62.4245 12.54C62.2512 12.72 62.0279 12.8633 61.7545 12.97C61.4879 13.07 61.1979 13.12 60.8845 13.12ZM61.0545 12.28C61.3745 12.28 61.6479 12.22 61.8745 12.1C62.1012 11.9733 62.2779 11.8 62.4045 11.58C62.5312 11.36 62.5945 11.11 62.5945 10.83V10.49L61.0345 10.79C60.7145 10.85 60.4879 10.9467 60.3545 11.08C60.2279 11.2067 60.1645 11.37 60.1645 11.57C60.1645 11.7967 60.2412 11.9733 60.3945 12.1C60.5545 12.22 60.7745 12.28 61.0545 12.28ZM67.0305 13.12C66.5305 13.12 66.1071 13.0433 65.7605 12.89C65.4205 12.7367 65.1571 12.5267 64.9705 12.26C64.7838 11.9867 64.6771 11.6733 64.6505 11.32L65.7405 11.27C65.7938 11.5633 65.9205 11.7967 66.1205 11.97C66.3205 12.1433 66.6238 12.23 67.0305 12.23C67.3638 12.23 67.6271 12.1767 67.8205 12.07C68.0138 11.9633 68.1105 11.7933 68.1105 11.56C68.1105 11.4333 68.0771 11.3267 68.0105 11.24C67.9505 11.1467 67.8305 11.07 67.6505 11.01C67.4705 10.9433 67.2038 10.88 66.8505 10.82C66.3238 10.72 65.9105 10.6033 65.6105 10.47C65.3105 10.3367 65.0971 10.1667 64.9705 9.96C64.8438 9.75333 64.7805 9.50333 64.7805 9.21C64.7805 8.72333 64.9605 8.32667 65.3205 8.02C65.6871 7.71333 66.2138 7.56 66.9005 7.56C67.3605 7.56 67.7471 7.64 68.0605 7.8C68.3738 7.95333 68.6171 8.16333 68.7905 8.43C68.9705 8.69 69.0838 8.98333 69.1305 9.31L68.0405 9.37C68.0071 9.18333 67.9405 9.02333 67.8405 8.89C67.7471 8.75 67.6205 8.64333 67.4605 8.57C67.3005 8.49 67.1105 8.45 66.8905 8.45C66.5505 8.45 66.2971 8.51667 66.1305 8.65C65.9638 8.78333 65.8805 8.95667 65.8805 9.17C65.8805 9.33 65.9171 9.46 65.9905 9.56C66.0705 9.66 66.1971 9.74333 66.3705 9.81C66.5438 9.87 66.7738 9.92333 67.0605 9.97C67.6138 10.0633 68.0471 10.18 68.3605 10.32C68.6738 10.4533 68.8938 10.62 69.0205 10.82C69.1471 11.02 69.2105 11.2633 69.2105 11.55C69.2105 11.8833 69.1171 12.1667 68.9305 12.4C68.7438 12.6333 68.4871 12.8133 68.1605 12.94C67.8338 13.06 67.4571 13.12 67.0305 13.12ZM70.2832 13V7.68H71.3432V13H70.2832ZM70.2632 6.91V5.85H71.3632V6.91H70.2632ZM72.9297 13V7.68H73.8997L73.9397 9.1L73.8097 9.03C73.8697 8.68333 73.983 8.40333 74.1497 8.19C74.3164 7.97667 74.5197 7.82 74.7597 7.72C74.9997 7.61333 75.2597 7.56 75.5397 7.56C75.9397 7.56 76.2697 7.65 76.5297 7.83C76.7964 8.00333 76.9964 8.24333 77.1297 8.55C77.2697 8.85 77.3397 9.19333 77.3397 9.58V13H76.2797V9.9C76.2797 9.58667 76.2464 9.32333 76.1797 9.11C76.113 8.89667 76.003 8.73333 75.8497 8.62C75.6964 8.50667 75.4964 8.45 75.2497 8.45C74.8764 8.45 74.573 8.57333 74.3397 8.82C74.1064 9.06667 73.9897 9.42667 73.9897 9.9V13H72.9297ZM80.9107 13.12C80.404 13.12 79.9607 13.0067 79.5807 12.78C79.2007 12.5533 78.9074 12.23 78.7007 11.81C78.494 11.39 78.3907 10.9 78.3907 10.34C78.3907 9.77333 78.494 9.28333 78.7007 8.87C78.9074 8.45667 79.2007 8.13667 79.5807 7.91C79.9607 7.67667 80.404 7.56 80.9107 7.56C81.4174 7.56 81.8607 7.67667 82.2407 7.91C82.6207 8.13667 82.914 8.45667 83.1207 8.87C83.3274 9.28333 83.4307 9.77333 83.4307 10.34C83.4307 10.9 83.3274 11.39 83.1207 11.81C82.914 12.23 82.6207 12.5533 82.2407 12.78C81.8607 13.0067 81.4174 13.12 80.9107 13.12ZM80.9107 12.2C81.364 12.2 81.714 12.0367 81.9607 11.71C82.2074 11.3767 82.3307 10.92 82.3307 10.34C82.3307 9.76 82.2074 9.30667 81.9607 8.98C81.714 8.64667 81.364 8.48 80.9107 8.48C80.464 8.48 80.114 8.64667 79.8607 8.98C79.614 9.30667 79.4907 9.76 79.4907 10.34C79.4907 10.92 79.614 11.3767 79.8607 11.71C80.114 12.0367 80.464 12.2 80.9107 12.2Z" fill="white"/>
</g>
<defs>
<filter id="filter0_i_5_6" x="47" y="3" width="43" height="15" filterUnits="userSpaceOnUse" color-interpolation-filters="sRGB">
<feFlood flood-opacity="0" result="BackgroundImageFix"/>
<feBlend mode="normal" in="SourceGraphic" in2="BackgroundImageFix" result="shape"/>
<feColorMatrix in="SourceAlpha" type="matrix" values="0 0 0 0 0 0 0 0 0 0 0 0 0 0 0 0 0 0 127 0" result="hardAlpha"/>
<feOffset dy="-1"/>
<feComposite in2="hardAlpha" operator="arithmetic" k2="-1" k3="1"/>
<feColorMatrix type="matrix" values="0 0 0 0 1 0 0 0 0 0.396078 0 0 0 0 0 0 0 0 1 0"/>
<feBlend mode="normal" in2="shape" result="effect1_innerShadow_5_6"/>
</filter>
</defs>
</svg>
